<svg xmlns="http://www.w3.org/2000/svg" width="375" viewBox="0 0 375 150" height="150" version="1.0"><path fill="#FFF" d="M-37.5 -15H412.5V165H-37.5z"/><path fill="#FFF" d="M-37.5 -15H412.5V165H-37.5z"/><path fill="#CC1DB9" d="M 260.210938 26.0625 L 362.761719 26.0625 L 362.761719 115.78125 L 260.210938 115.78125 Z M 260.210938 26.0625"/><g><g><g><path d="M 32.734375 -64.4375 L 32.734375 -18.203125 C 32.734375 -11.898438 31 -7.09375 27.53125 -3.78125 C 24.070312 -0.476562 19.113281 1.171875 12.65625 1.171875 C 10.9375 1.171875 9.242188 0.960938 7.578125 0.546875 C 5.910156 0.128906 4.503906 -0.375 3.359375 -0.96875 C 2.210938 -1.570312 1.179688 -2.1875 0.265625 -2.8125 C -0.640625 -3.4375 -1.300781 -3.957031 -1.71875 -4.375 L -2.421875 -5 L 2.265625 -17.265625 C 5.335938 -14.347656 8.125 -12.890625 10.625 -12.890625 C 12.863281 -12.890625 14.660156 -13.628906 16.015625 -15.109375 C 17.367188 -16.597656 18.046875 -18.878906 18.046875 -21.953125 L 18.046875 -64.4375 Z M 32.734375 -64.4375" transform="translate(15 99.768)"/></g></g></g><g><g><g><path d="M 17.734375 -40.0625 L 17.734375 -21.015625 C 17.734375 -17.054688 18.332031 -14.242188 19.53125 -12.578125 C 20.726562 -10.910156 22.757812 -10.078125 25.625 -10.078125 C 28.488281 -10.078125 30.519531 -10.910156 31.71875 -12.578125 C 32.914062 -14.242188 33.515625 -17.054688 33.515625 -21.015625 L 33.515625 -40.0625 L 47.328125 -40.0625 L 47.328125 -17.65625 C 47.328125 -10.988281 45.597656 -6.179688 42.140625 -3.234375 C 38.679688 -0.296875 33.175781 1.171875 25.625 1.171875 C 18.070312 1.171875 12.5625 -0.296875 9.09375 -3.234375 C 5.632812 -6.179688 3.90625 -10.988281 3.90625 -17.65625 L 3.90625 -40.0625 Z M 17.734375 -40.0625" transform="translate(51.63 99.768)"/></g></g></g><g><g><g><path d="M 18.984375 -51.859375 L 34.84375 -65.609375 L 41.9375 -56.625 L 23.359375 -45.84375 Z M 45.21875 -18.125 L 16.171875 -18.125 C 16.171875 -15.3125 17.082031 -13.226562 18.90625 -11.875 C 20.726562 -10.519531 22.707031 -9.84375 24.84375 -9.84375 C 27.082031 -9.84375 28.851562 -10.140625 30.15625 -10.734375 C 31.457031 -11.335938 32.941406 -12.523438 34.609375 -14.296875 L 44.59375 -9.296875 C 40.4375 -2.316406 33.515625 1.171875 23.828125 1.171875 C 17.785156 1.171875 12.601562 -0.894531 8.28125 -5.03125 C 3.957031 -9.175781 1.796875 -14.164062 1.796875 -20 C 1.796875 -25.832031 3.957031 -30.828125 8.28125 -34.984375 C 12.601562 -39.148438 17.785156 -41.234375 23.828125 -41.234375 C 30.179688 -41.234375 35.347656 -39.398438 39.328125 -35.734375 C 43.304688 -32.066406 45.296875 -26.820312 45.296875 -20 C 45.296875 -19.0625 45.269531 -18.4375 45.21875 -18.125 Z M 16.5625 -25.78125 L 31.796875 -25.78125 C 31.484375 -27.863281 30.660156 -29.460938 29.328125 -30.578125 C 28.003906 -31.703125 26.300781 -32.265625 24.21875 -32.265625 C 21.925781 -32.265625 20.101562 -31.664062 18.75 -30.46875 C 17.394531 -29.269531 16.664062 -27.707031 16.5625 -25.78125 Z M 16.5625 -25.78125" transform="translate(102.863 99.768)"/></g></g></g><g><g><g><path d="M 2.890625 9.84375 L 14.21875 4.296875 C 16.300781 7.734375 19.921875 9.453125 25.078125 9.453125 C 27.472656 9.453125 29.695312 8.679688 31.75 7.140625 C 33.8125 5.609375 34.84375 3.253906 34.84375 0.078125 L 34.84375 -2.890625 C 32.394531 -0.179688 28.019531 1.171875 21.71875 1.171875 C 15.9375 1.171875 11.171875 -0.867188 7.421875 -4.953125 C 3.671875 -9.046875 1.796875 -14.0625 1.796875 -20 C 1.796875 -25.9375 3.671875 -30.957031 7.421875 -35.0625 C 11.171875 -39.175781 15.9375 -41.234375 21.71875 -41.234375 C 26.875 -41.234375 31.171875 -39.648438 34.609375 -36.484375 L 34.84375 -36.484375 L 34.84375 -40.0625 L 48.65625 -40.0625 L 48.65625 1.09375 C 48.65625 7.601562 46.492188 12.628906 42.171875 16.171875 C 37.859375 19.710938 32.160156 21.484375 25.078125 21.484375 C 13.617188 21.484375 6.222656 17.601562 2.890625 9.84375 Z M 19.171875 -26.796875 C 17.378906 -25.023438 16.484375 -22.757812 16.484375 -20 C 16.484375 -17.238281 17.34375 -14.984375 19.0625 -13.234375 C 20.78125 -11.492188 23.046875 -10.625 25.859375 -10.625 C 28.566406 -10.625 30.789062 -11.507812 32.53125 -13.28125 C 34.28125 -15.050781 35.15625 -17.289062 35.15625 -20 C 35.15625 -22.757812 34.253906 -25.023438 32.453125 -26.796875 C 30.660156 -28.566406 28.460938 -29.453125 25.859375 -29.453125 C 23.203125 -29.453125 20.972656 -28.566406 19.171875 -26.796875 Z M 19.171875 -26.796875" transform="translate(149.957 99.768)"/></g></g></g><g><g><g><path d="M 7.421875 -4.953125 C 3.671875 -9.046875 1.796875 -14.0625 1.796875 -20 C 1.796875 -25.9375 3.671875 -30.957031 7.421875 -35.0625 C 11.171875 -39.175781 15.9375 -41.234375 21.71875 -41.234375 C 27.03125 -41.234375 31.40625 -39.570312 34.84375 -36.25 L 34.84375 -40.0625 L 48.65625 -40.0625 L 48.65625 0 L 35 0 L 35 -4.53125 L 34.84375 -4.53125 C 31.40625 -0.726562 27.03125 1.171875 21.71875 1.171875 C 15.9375 1.171875 11.171875 -0.867188 7.421875 -4.953125 Z M 19.171875 -26.796875 C 17.378906 -25.023438 16.484375 -22.757812 16.484375 -20 C 16.484375 -17.238281 17.34375 -14.984375 19.0625 -13.234375 C 20.78125 -11.492188 23.046875 -10.625 25.859375 -10.625 C 28.566406 -10.625 30.789062 -11.507812 32.53125 -13.28125 C 34.28125 -15.050781 35.15625 -17.289062 35.15625 -20 C 35.15625 -22.757812 34.253906 -25.023438 32.453125 -26.796875 C 30.660156 -28.566406 28.460938 -29.453125 25.859375 -29.453125 C 23.203125 -29.453125 20.972656 -28.566406 19.171875 -26.796875 Z M 19.171875 -26.796875" transform="translate(203.3 99.768)"/></g></g></g><g fill="#FFF"><g><g><path d="M 4.453125 0 L 4.453125 -63.90625 L 17.609375 -63.90625 L 17.609375 0 Z M 4.453125 0" transform="translate(262.951 100.93)"/></g></g></g><g fill="#FFF"><g><g><path d="M 8.0625 -4.53125 C 3.820312 -8.300781 1.703125 -13.128906 1.703125 -19.015625 C 1.703125 -24.910156 3.90625 -29.753906 8.3125 -33.546875 C 12.726562 -37.335938 18.179688 -39.234375 24.671875 -39.234375 C 31.066406 -39.234375 36.453125 -37.328125 40.828125 -33.515625 C 45.210938 -29.703125 47.40625 -24.867188 47.40625 -19.015625 C 47.40625 -13.171875 45.265625 -8.351562 40.984375 -4.5625 C 36.703125 -0.78125 31.265625 1.109375 24.671875 1.109375 C 17.835938 1.109375 12.300781 -0.769531 8.0625 -4.53125 Z M 18.25 -25.484375 C 16.539062 -23.804688 15.6875 -21.648438 15.6875 -19.015625 C 15.6875 -16.390625 16.5 -14.25 18.125 -12.59375 C 19.757812 -10.9375 21.914062 -10.109375 24.59375 -10.109375 C 27.175781 -10.109375 29.296875 -10.945312 30.953125 -12.625 C 32.609375 -14.3125 33.4375 -16.445312 33.4375 -19.03125 C 33.4375 -21.65625 32.582031 -23.804688 30.875 -25.484375 C 29.164062 -27.171875 27.070312 -28.015625 24.59375 -28.015625 C 22.070312 -28.015625 19.957031 -27.171875 18.25 -25.484375 Z M 18.25 -25.484375" transform="translate(285.022 100.93)"/></g></g></g><g fill="#FFF"><g><g><path d="M 8.171875 -20.0625 L 6.390625 -63.90625 L 19.546875 -63.90625 L 17.765625 -20.0625 Z M 12.9375 -15.90625 C 15.3125 -15.90625 17.328125 -15.070312 18.984375 -13.40625 C 20.640625 -11.75 21.46875 -9.734375 21.46875 -7.359375 C 21.46875 -5.023438 20.640625 -3.03125 18.984375 -1.375 C 17.328125 0.28125 15.3125 1.109375 12.9375 1.109375 C 10.601562 1.109375 8.601562 0.28125 6.9375 -1.375 C 5.28125 -3.03125 4.453125 -5.023438 4.453125 -7.359375 C 4.453125 -9.734375 5.28125 -11.75 6.9375 -13.40625 C 8.601562 -15.070312 10.601562 -15.90625 12.9375 -15.90625 Z M 12.9375 -15.90625" transform="translate(334.141 100.93)"/></g></g></g></svg>